<svg width="1328" height="484" viewBox="0 0 1328 484" fill="none" xmlns="http://www.w3.org/2000/svg">
<g clip-path="url(#clip0_22686_87040)">
<rect width="1328" height="484" transform="matrix(-1 0 0 1 1328 0)" fill="#123456"/>
<path d="M1328 40.9989V44.3789H1310.97V40.9989H1328Z" fill="#174574"/>
<path d="M1327.99 77.952V81.332H1310.96V77.952H1327.99Z" fill="#1F5D9B"/>
<path d="M1328 59.3778V62.7578H1310.97V59.3778H1328Z" fill="#0B2239"/>
<path d="M2.69 9.88C4.31001 9.88 5.63 8.56 5.63 6.94C5.63 5.32 4.31001 4 2.69 4C1.07 4 -0.25 5.32 -0.25 6.94C-0.25 8.57 1.07 9.88 2.69 9.88ZM-0.25 24.53C-0.25 22.91 1.07 21.59 2.69 21.59C4.31001 21.59 5.63 22.91 5.63 24.53C5.63 26.15 4.31001 27.47 2.69 27.47C1.07 27.47 -0.25 26.16 -0.25 24.53ZM-0.25 42.12C-0.25 40.5 1.07 39.18 2.69 39.18C4.31001 39.18 5.63 40.5 5.63 42.12C5.63 43.74 4.31001 45.06 2.69 45.06C1.07 45.07 -0.25 43.75 -0.25 42.12ZM-0.25 59.72C-0.25 58.1 1.07 56.78 2.69 56.78C4.31001 56.78 5.63 58.1 5.63 59.72C5.63 61.34 4.31001 62.66 2.69 62.66C1.07 62.66 -0.25 61.34 -0.25 59.72ZM-0.25 77.31C-0.25 75.69 1.07 74.37 2.69 74.37C4.31001 74.37 5.63 75.69 5.63 77.31C5.63 78.93 4.31001 80.25 2.69 80.25C1.07 80.25 -0.25 78.93 -0.25 77.31ZM17.34 6.94C17.34 5.32 18.66 4 20.28 4C21.9 4 23.22 5.32 23.22 6.94C23.22 8.56 21.9 9.88 20.28 9.88C18.66 9.88 17.34 8.57 17.34 6.94ZM17.34 24.53C17.34 22.91 18.66 21.59 20.28 21.59C21.9 21.59 23.22 22.91 23.22 24.53C23.22 26.15 21.9 27.47 20.28 27.47C18.66 27.47 17.34 26.16 17.34 24.53ZM17.34 42.12C17.34 40.5 18.66 39.18 20.28 39.18C21.9 39.18 23.22 40.5 23.22 42.12C23.22 43.74 21.9 45.06 20.28 45.06C18.66 45.07 17.34 43.75 17.34 42.12ZM17.34 59.72C17.34 58.1 18.66 56.78 20.28 56.78C21.9 56.78 23.22 58.1 23.22 59.72C23.22 61.34 21.9 62.66 20.28 62.66C18.66 62.66 17.34 61.34 17.34 59.72ZM17.34 77.31C17.34 75.69 18.66 74.37 20.28 74.37C21.9 74.37 23.22 75.69 23.22 77.31C23.22 78.93 21.9 80.25 20.28 80.25C18.66 80.25 17.34 78.93 17.34 77.31ZM34.94 6.94C34.94 5.32 36.26 4 37.88 4C39.5 4 40.82 5.32 40.82 6.94C40.82 8.56 39.5 9.88 37.88 9.88C36.25 9.88 34.94 8.57 34.94 6.94ZM34.94 24.53C34.94 22.91 36.26 21.59 37.88 21.59C39.5 21.59 40.82 22.91 40.82 24.53C40.82 26.15 39.5 27.47 37.88 27.47C36.25 27.47 34.94 26.16 34.94 24.53ZM34.94 42.12C34.94 40.5 36.26 39.18 37.88 39.18C39.5 39.18 40.82 40.5 40.82 42.12C40.82 43.74 39.5 45.06 37.88 45.06C36.25 45.07 34.94 43.75 34.94 42.12ZM34.94 59.72C34.94 58.1 36.26 56.78 37.88 56.78C39.5 56.78 40.82 58.1 40.82 59.72C40.82 61.34 39.5 62.66 37.88 62.66C36.25 62.66 34.94 61.34 34.94 59.72ZM34.94 77.31C34.94 75.69 36.26 74.37 37.88 74.37C39.5 74.37 40.82 75.69 40.82 77.31C40.82 78.93 39.5 80.25 37.88 80.25C36.25 80.25 34.94 78.93 34.94 77.31ZM52.53 6.94C52.53 5.32 53.85 4 55.47 4C57.09 4 58.41 5.32 58.41 6.94C58.41 8.56 57.09 9.88 55.47 9.88C53.84 9.88 52.53 8.57 52.53 6.94ZM52.53 24.53C52.53 22.91 53.85 21.59 55.47 21.59C57.09 21.59 58.41 22.91 58.41 24.53C58.41 26.15 57.09 27.47 55.47 27.47C53.84 27.47 52.53 26.16 52.53 24.53ZM52.53 42.12C52.53 40.5 53.85 39.18 55.47 39.18C57.09 39.18 58.41 40.5 58.41 42.12C58.41 43.74 57.09 45.06 55.47 45.06C53.84 45.07 52.53 43.75 52.53 42.12ZM52.53 59.72C52.53 58.1 53.85 56.78 55.47 56.78C57.09 56.78 58.41 58.1 58.41 59.72C58.41 61.34 57.09 62.66 55.47 62.66C53.84 62.66 52.53 61.34 52.53 59.72ZM52.53 77.31C52.53 75.69 53.85 74.37 55.47 74.37C57.09 74.37 58.41 75.69 58.41 77.31C58.41 78.93 57.09 80.25 55.47 80.25C53.84 80.25 52.53 78.93 52.53 77.31ZM70.12 6.94C70.12 5.32 71.44 4 73.06 4C74.68 4 76 5.32 76 6.94C76 8.56 74.68 9.88 73.06 9.88C71.44 9.88 70.12 8.57 70.12 6.94ZM70.12 24.53C70.12 22.91 71.44 21.59 73.06 21.59C74.68 21.59 76 22.91 76 24.53C76 26.15 74.68 27.47 73.06 27.47C71.44 27.47 70.12 26.16 70.12 24.53ZM70.12 42.12C70.12 40.5 71.44 39.18 73.06 39.18C74.68 39.18 76 40.5 76 42.12C76 43.74 74.68 45.06 73.06 45.06C71.44 45.06 70.12 43.75 70.12 42.12ZM70.12 59.72C70.12 58.1 71.44 56.78 73.06 56.78C74.68 56.78 76 58.1 76 59.72C76 61.34 74.68 62.66 73.06 62.66C71.44 62.66 70.12 61.34 70.12 59.72ZM70.12 77.31C70.12 75.69 71.44 74.37 73.06 74.37C74.68 74.37 76 75.69 76 77.31C76 78.93 74.68 80.25 73.06 80.25C71.44 80.25 70.12 78.93 70.12 77.31Z" fill="#0B2239"/>
<circle cx="93.5" cy="93.5" r="92.5" transform="matrix(-1 0 0 1 292 408)" stroke="#174574" stroke-width="2"/>
<circle cx="131" cy="131" r="131" transform="matrix(-1 0 0 1 213 337)" fill="#0B2239"/>
<path fill-rule="evenodd" clip-rule="evenodd" d="M897.263 99.601C856.192 92.3641 810.476 92.9768 774.939 112.419C752.578 124.646 755.154 122.278 737.869 138.055C689.068 182.602 716.566 245.66 697.096 296.881C689.372 317.151 676.721 342.39 661.824 370.245C646.927 398.099 622.607 465.032 666.293 519.77C712.809 578.035 800.114 563.087 873.086 577.853C902.769 583.859 937.594 590.699 965.086 600.618C1022.68 621.402 1096.52 618.984 1157.83 601.629C1201.21 589.352 1245.08 554.906 1258.3 540.989C1306.03 490.756 1314.73 432.402 1308 397.387C1297.23 341.341 1265.51 317.483 1256.69 307.513C1240.13 288.866 1217.18 256.015 1204.82 228.575C1186.56 187.968 1171.4 145.689 1086.2 146.727C997.037 147.798 913.505 102.444 897.263 99.601Z" fill="#174574"/>
<path d="M1136.85 473.928C1136.85 473.928 1145.63 490.761 1145.63 503.375C1145.63 515.989 1164.27 647.15 1164.27 647.15L1086.4 650.335C1086.4 650.335 1062.83 580.726 1052.4 566.438C1041.98 552.151 1043.63 469.407 1043.63 469.407C1043.63 469.407 1131.66 461.722 1136.85 473.928Z" fill="#1C3E53"/>
<path d="M1086.4 650.324C1086.4 650.324 1062.83 580.715 1052.4 566.427C1041.98 552.14 1043.63 469.396 1043.63 469.396C1043.63 469.396 1131.66 461.76 1136.85 473.953C1136.85 473.953 1145.63 490.785 1145.63 503.399C1145.63 507.344 1147.45 522.918 1149.96 542.444" fill="#1C3E53"/>
<path d="M1086.4 650.324C1086.4 650.324 1062.83 580.715 1052.4 566.427C1041.98 552.14 1043.63 469.396 1043.63 469.396C1043.63 469.396 1131.66 461.76 1136.85 473.953C1136.85 473.953 1145.63 490.785 1145.63 503.399C1145.63 507.344 1147.45 522.918 1149.96 542.444" stroke="#2B2829" stroke-width="1.97316" stroke-linecap="round" stroke-linejoin="round"/>
<path d="M970.155 504.464C970.703 518.168 963.025 589.113 976.188 643.198C976.188 643.198 993.182 644.941 1011.17 646.116C1028.13 647.212 1045.99 647.803 1051.32 645.94C1051.32 642.649 1054.61 573.012 1059.54 563.674C1064.48 554.337 1061.19 512.529 1059.54 493.685C1057.9 474.842 977.278 460.575 970.155 494.03" fill="#1C3E53"/>
<path d="M1059.54 493.696C1057.9 474.845 977.279 460.585 970.156 494.04" stroke="#2B2829" stroke-width="1.97316" stroke-linecap="round" stroke-linejoin="round"/>
<path d="M942.181 238.938C942.181 238.938 974.173 225.909 995.443 221.67C995.443 221.67 998.065 212.529 1017.49 208.535C1017.49 208.535 1038.84 211.066 1060.11 219.574C1067.14 222.387 1071.13 222.534 1078.59 234.291C1078.59 234.291 1097.5 240.211 1100.19 240.619C1109.97 242.067 1142.51 250.034 1143.78 297.459C1145.05 344.885 1155.93 395.573 1155.93 395.573C1155.93 395.573 1131.67 414.86 1133.12 435.813C1134.57 456.766 1143.09 487.879 1143.09 487.879C1143.09 487.879 1006.9 532.893 969.392 496.436C969.392 496.436 989.375 434.4 972.704 403.378C956.032 372.356 922.599 253.486 942.181 238.938Z" fill="#1C3E53"/>
<path d="M1024.75 187.888C1024.75 187.888 1018.55 212.019 1013.72 216.498C1013.72 216.498 1020.62 241.319 1051.3 254.411C1051.3 254.411 1060.25 261.997 1065.42 276.475C1065.42 276.475 1070.7 261.111 1072.32 255.796C1076.78 241.15 1062.02 240.601 1067.22 222.285C1072.86 202.38 1055.8 186.51 1024.75 187.888Z" fill="white"/>
<path d="M1001.69 216.207C1000.46 217.587 999.787 219.368 999.787 221.213C999.787 223.059 1000.46 224.84 1001.69 226.22C1006.02 231.634 1035.78 271.219 1037.41 276.472C1037.41 276.472 1041.47 248.276 1050.4 255.378" stroke="#2B2829" stroke-width="1.97316" stroke-linecap="round" stroke-linejoin="round"/>
<path d="M1078.59 238.422C1078.59 238.422 1084.22 260.317 1088.01 265.998C1088.01 265.998 1085.04 269.514 1079.62 263.024C1074.21 256.534 1070.7 261.4 1070.7 261.4" stroke="#2B2829" stroke-width="1.97316" stroke-linecap="round" stroke-linejoin="round"/>
<path d="M1070.7 284.672C1070.7 284.672 1078 303.347 1078.54 310.919C1079.08 318.492 1080.97 339.333 1082.87 344.473" stroke="#2B2829" stroke-width="1.97316" stroke-linecap="round" stroke-linejoin="round"/>
<path d="M1127.33 253.731C1127.33 253.731 1112.14 396.634 1134.11 444.397C1134.11 444.397 1144.71 477.648 1142.9 481.613C1141.09 485.579 1056.73 534.066 969.397 496.428C969.397 496.428 981.568 420.273 975.837 409.332C970.107 398.392 936.765 271.098 945.603 253.738C945.603 253.738 944.33 234.458 953.204 232.961C962.077 231.463 988.922 223.215 993.282 222.111C997.641 221.008 1031.09 286.3 1053.88 311.753C1076.68 337.206 1084.02 356.507 1084.02 356.507C1084.02 356.507 1081.81 329.45 1089.55 304.44C1097.29 279.43 1092.88 236.272 1092.88 236.272C1092.88 236.272 1118.97 242.931 1127.33 253.731Z" fill="#DB4231" stroke="#2B2829" stroke-width="1.97316" stroke-linecap="round" stroke-linejoin="round"/>
<path d="M1108.84 289.52H1103.5V294.856H1108.84V289.52Z" fill="#012846"/>
<path d="M1103.5 294.855C1104.03 294.855 1104.55 294.699 1104.98 294.405C1105.42 294.112 1105.77 293.694 1105.97 293.206C1106.17 292.718 1106.22 292.181 1106.12 291.662C1106.02 291.144 1105.76 290.668 1105.39 290.294C1105.02 289.921 1104.54 289.666 1104.02 289.563C1103.5 289.46 1102.97 289.513 1102.48 289.715C1101.99 289.917 1101.57 290.26 1101.28 290.699C1100.98 291.139 1100.83 291.655 1100.83 292.184C1100.83 292.892 1101.11 293.572 1101.61 294.073C1102.11 294.574 1102.79 294.855 1103.5 294.855Z" fill="white"/>
<path d="M1112.9 294.855C1113.43 294.857 1113.95 294.701 1114.39 294.409C1114.83 294.116 1115.17 293.699 1115.37 293.211C1115.58 292.723 1115.63 292.185 1115.53 291.667C1115.43 291.148 1115.17 290.671 1114.8 290.297C1114.42 289.922 1113.95 289.667 1113.43 289.564C1112.91 289.46 1112.37 289.512 1111.89 289.714C1111.4 289.916 1110.98 290.259 1110.69 290.698C1110.39 291.138 1110.23 291.655 1110.23 292.184C1110.23 292.891 1110.51 293.57 1111.01 294.07C1111.51 294.571 1112.19 294.854 1112.9 294.855Z" fill="white"/>
<path d="M1112.9 301.625C1113.43 301.626 1113.95 301.471 1114.39 301.178C1114.83 300.885 1115.17 300.467 1115.37 299.979C1115.58 299.49 1115.63 298.953 1115.53 298.434C1115.42 297.915 1115.17 297.438 1114.8 297.064C1114.42 296.69 1113.94 296.435 1113.43 296.332C1112.91 296.229 1112.37 296.283 1111.88 296.486C1111.39 296.689 1110.97 297.033 1110.68 297.473C1110.39 297.914 1110.23 298.431 1110.23 298.96C1110.24 299.666 1110.52 300.343 1111.02 300.842C1111.52 301.342 1112.19 301.623 1112.9 301.625Z" fill="white"/>
<path d="M1106.16 296.285H1100.83V301.622H1106.16V296.285Z" fill="#012846"/>
<path d="M1106.16 296.285C1105.64 296.285 1105.12 296.442 1104.68 296.735C1104.24 297.029 1103.9 297.446 1103.7 297.935C1103.49 298.423 1103.44 298.96 1103.54 299.478C1103.65 299.997 1103.9 300.473 1104.27 300.846C1104.65 301.22 1105.12 301.474 1105.64 301.578C1106.16 301.681 1106.7 301.628 1107.19 301.426C1107.67 301.223 1108.09 300.881 1108.39 300.441C1108.68 300.002 1108.84 299.485 1108.84 298.957C1108.84 298.248 1108.55 297.569 1108.05 297.068C1107.55 296.567 1106.87 296.285 1106.16 296.285Z" fill="white"/>
<path d="M999.219 397.989C999.219 397.989 1072.22 408.536 1124.02 382.422C1123.12 389.66 1123.12 396.981 1124.02 404.219C1125.55 415.469 1003.03 445.893 977.971 436.654C977.971 436.654 981.824 403.354 980.966 398.017C980.108 392.68 999.219 397.989 999.219 397.989Z" fill="white"/>
<path d="M1125.52 424.559C1125.52 424.559 1127.1 428.004 1130.11 438.199C1133.33 449.105 998.08 475.521 974.969 466.373L976.86 452.009C1019.74 455.264 1044.09 453.436 1125.52 424.559Z" fill="white"/>
<path d="M1103.88 456.223C1103.88 456.223 1111.61 479.102 1112.73 494.044" stroke="#2B2829" stroke-width="1.97316" stroke-linecap="round" stroke-linejoin="round"/>
<path d="M1130.09 256.664C1130.09 256.664 1142.43 270.973 1143.69 294.858" stroke="#2B2829" stroke-width="1.97316" stroke-linecap="round" stroke-linejoin="round"/>
<path d="M1143.69 298.953C1143.69 298.953 1143.09 332 1148.67 352.742" stroke="#2B2829" stroke-width="1.97316" stroke-linecap="round" stroke-linejoin="round"/>
<path d="M1013.73 219.57C1013.73 219.57 1023.83 241.986 1042.1 249.762C1060.37 257.539 1065.27 277.761 1065.27 277.761C1065.27 277.761 1076.46 254.241 1073.74 248.666C1071.03 243.09 1061.75 235.665 1067.21 222.291" stroke="#2B2829" stroke-width="1.97316" stroke-linecap="round" stroke-linejoin="round"/>
<path d="M1167.79 446.665C1169.2 447.052 1200.58 437.77 1208.99 433.777C1208.99 433.777 1161.73 422.013 1162.36 425.585C1162.99 429.157 1154.56 443.093 1167.79 446.665Z" fill="white" stroke="#2B2829" stroke-width="1.97316" stroke-linecap="round" stroke-linejoin="round"/>
<path d="M1133.78 433.575C1133.78 433.575 1149.95 449.128 1169.29 449.128C1169.29 449.128 1168.33 447.666 1167.13 445.521C1164.63 441.035 1161.13 433.568 1163.4 430.172L1131.47 428.766L1133.78 433.575Z" fill="#1C3E53" stroke="#2B2829" stroke-width="1.97316" stroke-linecap="round" stroke-linejoin="round"/>
<path d="M1077.49 420.967L1166.29 377.928L1224.69 381.599L1246.76 304.48C1246.76 304.48 1247.5 301.379 1254.95 299.017C1265.1 295.79 1307.06 275.582 1307.06 275.582C1307.06 275.582 1310.93 273.986 1309.79 281.27C1308.66 288.554 1279.07 392.996 1279.07 392.996C1277.07 394.212 1275.17 395.583 1273.39 397.096C1270.43 399.599 1214.67 435.767 1214.67 435.767C1214.67 435.767 1082.49 428.736 1077.46 424.623C1077.49 424.609 1075.58 421.902 1077.49 420.967Z" fill="#515251" stroke="#2B2829" stroke-width="1.97316" stroke-linecap="round" stroke-linejoin="round"/>
<path d="M1147.8 413.365L1198.51 384.094L1223.82 386.372L1214.26 420.727L1148.17 415.059C1147.98 415.044 1147.79 414.967 1147.65 414.839C1147.5 414.711 1147.4 414.54 1147.36 414.35C1147.32 414.16 1147.34 413.962 1147.42 413.785C1147.49 413.607 1147.63 413.46 1147.8 413.365Z" fill="#5F6B73"/>
<path d="M1078.62 422.164L1208.99 431.375" stroke="#2B2829" stroke-width="1.97316" stroke-linecap="round" stroke-linejoin="round"/>
<path d="M1211.74 430.226L1224.69 380.445" stroke="#2B2829" stroke-width="1.97316" stroke-linecap="round" stroke-linejoin="round"/>
<path d="M1214.78 436.731C1214.78 436.731 1221.07 439.044 1224.69 436.731C1224.69 436.731 1228.11 438.658 1233.13 435.958C1238.14 433.258 1239.5 429.58 1241.24 429.391C1241.24 429.391 1247.22 430.973 1252.05 421.009C1252.05 421.009 1263.5 417.698 1254.43 411.426C1254.43 411.426 1255.13 405.435 1256.11 403.312C1257.09 401.188 1250.37 401.751 1247.61 408.339C1244.85 414.927 1245.11 418.38 1245.11 418.38C1245.11 418.38 1230.05 425.066 1227.15 430.22C1227.15 430.22 1215.17 433.061 1214.78 436.731Z" fill="white" stroke="#2B2829" stroke-width="1.97316" stroke-linecap="round" stroke-linejoin="round"/>
<path d="M1225.38 431.367C1225.86 432.123 1226.05 433.024 1225.92 433.909C1225.79 434.793 1225.35 435.603 1224.68 436.191" stroke="#2B2829" stroke-width="1.97316" stroke-linecap="round" stroke-linejoin="round"/>
<path d="M1245.11 418.383C1245.11 418.383 1252.84 421.617 1249.44 425.28" stroke="#2B2829" stroke-width="1.97316" stroke-linecap="round" stroke-linejoin="round"/>
<path d="M1252.14 419.987L1254.44 411.43" stroke="#2B2829" stroke-width="1.97316" stroke-linecap="round" stroke-linejoin="round"/>
<path d="M1217.1 377.187C1218.14 376.772 1217.1 372.208 1217.1 372.208C1214.2 368.693 1198.49 358.146 1198.49 358.146C1198.49 358.146 1197.82 356.283 1198.45 352.964C1199.08 349.645 1193.47 347.789 1191.42 344.681C1189.37 341.573 1185.41 339.914 1183.75 340.948C1182.09 341.981 1163.63 350.883 1163.63 350.883C1160.52 350.257 1149.13 353.78 1140.63 357.717C1132.14 361.655 1113.07 362.484 1113.07 362.484L1115.29 390.546C1128.69 386.658 1127.79 387.663 1127.79 387.663C1137.63 390.834 1163.36 388.015 1167.86 383.669C1172.37 379.324 1184.79 377.784 1184.79 377.784C1195.56 378.958 1202.37 377.967 1202.37 377.967C1210.97 381.947 1216.94 380.498 1217.55 379.865C1218.17 379.233 1217.1 377.187 1217.1 377.187ZM1177.34 355.101C1177.34 355.101 1183.63 349.983 1185.56 350.236C1187.48 350.489 1191.4 353.344 1191.83 356.529L1177.34 355.101Z" fill="white"/>
<path d="M1183.73 340.922C1182.07 341.955 1163.63 350.885 1163.63 350.885C1160.52 350.259 1149.13 353.782 1140.63 357.72C1132.14 361.657 1113.07 362.487 1113.07 362.487L1183.73 340.922ZM1115.29 390.548C1128.69 386.66 1127.79 387.666 1127.79 387.666C1137.63 390.837 1163.36 388.017 1167.86 383.672C1172.37 379.326 1184.79 377.787 1184.79 377.787C1195.56 378.961 1202.37 377.969 1202.37 377.969C1210.97 381.949 1216.94 380.501 1217.55 379.868C1218.17 379.235 1217.09 377.203 1217.09 377.203C1218.13 376.788 1217.09 372.225 1217.09 372.225C1214.19 368.709 1198.49 358.162 1198.49 358.162C1198.49 358.162 1197.82 356.299 1198.44 352.98C1199.07 349.662 1193.47 347.805 1191.41 344.698C1190.01 342.546 1188.49 341.316 1186.65 340.964L1115.29 390.548ZM1177.34 355.104C1177.34 355.104 1183.63 349.985 1185.56 350.238C1187.48 350.491 1191.4 353.346 1191.83 356.531L1177.34 355.104Z" stroke="#2B2829" stroke-width="1.97316" stroke-linecap="round" stroke-linejoin="round"/>
<path d="M1174.74 355.49C1174.74 355.49 1189.04 354.864 1198.49 358.112" stroke="#2B2829" stroke-width="1.97316" stroke-linecap="round" stroke-linejoin="round"/>
<path d="M1175.93 359.523C1175.93 359.523 1190.27 357.175 1198.15 363.461C1206.03 369.747 1216.92 373.248 1217.52 374.774" stroke="#2B2829" stroke-width="1.97316" stroke-linecap="round" stroke-linejoin="round"/>
<path d="M1180.78 368.496C1181.11 368.58 1198.14 368.834 1203.84 372.94C1209.54 377.046 1214.67 375.64 1217.09 377.159" stroke="#2B2829" stroke-width="1.97316" stroke-linecap="round" stroke-linejoin="round"/>
<path d="M951.35 234.281C951.35 234.281 915.406 244.709 921.137 296.276C926.867 347.843 927.908 395.782 981.05 430.164C981.05 430.164 1064.41 418.211 1109.21 397.343C1109.21 397.343 1121.71 378.59 1109.21 360.879C1109.21 360.879 1056.07 369.211 1036.79 371.819C1017.51 374.428 1000.62 368.936 998.754 362.96C995.808 353.524 982.864 300.431 985.733 284.667C985.74 284.667 975.861 240.11 951.35 234.281Z" fill="#1C3E53"/>
<path d="M951.351 234.016C951.351 234.016 925.012 241.652 921.025 276.203" stroke="#2B2829" stroke-width="1.97316" stroke-linecap="round" stroke-linejoin="round"/>
<path d="M998.493 362.066C996.109 357.488 988.825 318.964 987.404 313.191" stroke="#2B2829" stroke-width="1.97316" stroke-linecap="round" stroke-linejoin="round"/>
<path d="M1106.46 361.305C1095.33 363.041 1053.43 369.566 1036.79 371.816L1022.64 372.85C1011.3 372.33 1006.99 364.518 979.754 372.527" stroke="#2B2829" stroke-width="1.97316" stroke-linecap="round" stroke-linejoin="round"/>
<path d="M982.785 429.911C994.977 428.062 1068.22 416.411 1109.21 397.349C1109.21 397.349 1120.1 381.009 1111.38 364.422" stroke="#2B2829" stroke-width="1.97316" stroke-linecap="round" stroke-linejoin="round"/>
<path d="M920.53 283.582C920.463 287.744 920.665 291.906 921.135 296.041C926.76 346.898 927.878 394.204 978.847 428.482" stroke="#2B2829" stroke-width="1.97316" stroke-linecap="round" stroke-linejoin="round"/>
<path d="M1013.01 147.686C1013.01 147.686 1009.06 148.635 1009.06 155.343C1009.06 162.051 1013.15 177.379 1020.88 178.363L1080.65 189.177L1093.4 184.628L1104.69 145.907L1074.67 124.005L1030.2 122.113L1013.01 147.686Z" fill="white"/>
<path d="M1023.11 153.899C1023.11 153.899 1023.68 143.141 1025.22 140.603C1026.76 138.065 1042.42 124.937 1045.51 124.431C1048.6 123.925 1019.13 116.254 1019.13 116.254C1019.13 116.254 1013.66 127.012 1012.06 128.91C1010.46 130.809 1005.09 130.935 1006.68 135.084C1006.68 135.084 1000.73 140.005 1003.17 143.852C1005.61 147.698 1008.64 146.46 1008.64 146.46C1008.64 146.46 1007.12 151.93 1009.07 151.93C1011.01 151.93 1011.37 147.262 1014.19 147.712C1017.01 148.162 1023.11 153.899 1023.11 153.899Z" fill="#515251"/>
<path d="M1095.73 177.571C1095.73 177.571 1099.95 178.337 1101.16 175.56C1102.37 172.783 1109.23 176.432 1109.23 170.568C1109.23 164.704 1115.32 165.998 1113.52 162.039C1111.72 158.08 1112.89 155.401 1114.22 153.904C1115.55 152.406 1114.4 146.212 1109.81 144.953C1105.23 143.694 1070.8 125.969 1070.8 125.969C1070.8 125.969 1082.05 137.479 1087.62 139.293C1093.19 141.107 1099.2 141.346 1100.88 145.452C1102.55 149.559 1095.73 177.571 1095.73 177.571Z" fill="#515251"/>
<path d="M1065.27 187.864C1065.27 187.864 1073.99 181.712 1071.43 179.152C1068.87 176.593 1062.67 169.161 1068.61 163.262" stroke="#2B2829" stroke-width="1.97316" stroke-linecap="round" stroke-linejoin="round"/>
<path d="M1015.91 157.586C1015.91 157.586 1019.11 163.098 1019.11 168.428" stroke="#2B2829" stroke-width="1.97316" stroke-linecap="round" stroke-linejoin="round"/>
<path d="M1045.44 165.862C1046.57 165.862 1047.48 164.61 1047.48 163.064C1047.48 161.519 1046.57 160.266 1045.44 160.266C1044.31 160.266 1043.39 161.519 1043.39 163.064C1043.39 164.61 1044.31 165.862 1045.44 165.862Z" fill="#2B2829"/>
<path d="M1080.65 176.167C1081.78 176.167 1082.69 174.914 1082.69 173.369C1082.69 171.823 1081.78 170.57 1080.65 170.57C1079.52 170.57 1078.6 171.823 1078.6 173.369C1078.6 174.914 1079.52 176.167 1080.65 176.167Z" fill="#2B2829"/>
<path d="M1036.55 152.207C1036.55 152.207 1048.84 144.698 1054.44 155.35" stroke="#2B2829" stroke-width="1.97316" stroke-linecap="round" stroke-linejoin="round"/>
<path d="M1073.75 160.158C1073.75 160.158 1086.03 152.648 1091.63 163.294" stroke="#2B2829" stroke-width="1.97316" stroke-linecap="round" stroke-linejoin="round"/>
<path d="M1013.01 147.688C1013.01 147.688 1009.06 148.637 1009.06 155.345C1009.06 162.052 1013.15 177.38 1020.88 178.365" stroke="#2B2829" stroke-width="1.97316" stroke-linecap="round" stroke-linejoin="round"/>
<path d="M1015.91 121.019L1019.11 133.745C1019.11 133.745 1049.97 123.198 1073.76 129.906C1097.55 136.614 1112.11 149.65 1112.11 149.65C1112.11 149.65 1117.17 144.025 1114.57 140.179C1111.97 136.333 1058.91 113.945 1058.91 113.945L1015.91 121.019Z" stroke="#2B2829" stroke-width="1.97316" stroke-linecap="round" stroke-linejoin="round"/>
<path d="M1023.11 153.899C1023.11 153.899 1023.68 143.141 1025.22 140.603C1026.76 138.065 1042.42 124.937 1045.51 124.431C1048.6 123.925 1019.13 116.254 1019.13 116.254C1019.13 116.254 1013.66 127.012 1012.06 128.91C1010.46 130.809 1005.09 130.935 1006.68 135.084C1006.68 135.084 1000.73 140.005 1003.17 143.852C1005.61 147.698 1008.64 146.46 1008.64 146.46C1008.64 146.46 1007.12 151.93 1009.07 151.93C1011.01 151.93 1011.37 147.262 1014.19 147.712C1017.01 148.162 1023.11 153.899 1023.11 153.899Z" stroke="#2B2829" stroke-width="1.97316" stroke-linecap="round" stroke-linejoin="round"/>
<path d="M1095.73 177.571C1095.73 177.571 1099.95 178.337 1101.16 175.56C1102.37 172.783 1109.23 176.432 1109.23 170.568C1109.23 164.704 1115.32 165.998 1113.52 162.039C1111.72 158.08 1112.89 155.401 1114.22 153.904C1115.55 152.406 1114.4 146.212 1109.81 144.953C1105.23 143.694 1070.8 125.969 1070.8 125.969C1070.8 125.969 1082.05 137.479 1087.62 139.293C1093.19 141.107 1099.2 141.346 1100.88 145.452C1102.55 149.559 1095.73 177.571 1095.73 177.571Z" stroke="#2B2829" stroke-width="1.97316" stroke-linecap="round" stroke-linejoin="round"/>
<path d="M1084.7 203.712C1075.56 218.583 1060.52 223.737 1048.63 221.951C1041.36 220.862 1033.95 211.264 1029.28 203.944C1026 198.795 1023.88 192.99 1023.07 186.936C1022.93 185.832 1022.79 184.7 1022.67 183.596C1022.31 180.179 1022.17 176.994 1022.61 175.559C1023.79 171.727 1029.09 169.766 1031.25 169.766C1033.41 169.766 1046.62 174.477 1054.45 175.559C1062.29 176.642 1066.6 174.92 1067.77 175.559C1068.94 176.199 1088.26 185.27 1092.47 183.069" fill="white"/>
<path d="M1084.7 203.712C1075.56 218.583 1060.52 223.737 1048.63 221.951C1041.36 220.862 1033.95 211.264 1029.28 203.944C1026 198.795 1023.88 192.99 1023.07 186.936C1022.93 185.832 1022.79 184.7 1022.67 183.596C1022.31 180.179 1022.17 176.994 1022.61 175.559C1023.79 171.727 1029.09 169.766 1031.25 169.766C1033.41 169.766 1046.62 174.477 1054.45 175.559C1062.29 176.642 1066.6 174.92 1067.77 175.559C1068.94 176.199 1088.26 185.27 1092.47 183.069" stroke="#2B2829" stroke-width="1.97316" stroke-linecap="round" stroke-linejoin="round"/>
<path d="M1061.24 103.041C1061.24 103.041 1063.08 79.8875 1057.56 76.7305" stroke="#2B2829" stroke-width="1.86041" stroke-linecap="round" stroke-linejoin="round"/>
<path d="M1088.78 106.441C1088.78 106.441 1088.62 99.825 1090.18 96.2883C1091.74 92.7515 1090.18 83.5195 1090.18 83.5195" stroke="#2B2829" stroke-width="1.86041" stroke-linecap="round" stroke-linejoin="round"/>
<path d="M1063.66 191.633C1063.66 191.633 1070.32 178.126 1067.76 175.566C1065.2 173.007 1062.68 169.161 1068.59 163.262" stroke="#2B2829" stroke-width="1.97316" stroke-linecap="round" stroke-linejoin="round"/>
<path d="M1015.91 157.586C1015.91 157.586 1019.11 163.098 1019.11 168.428" stroke="#2B2829" stroke-width="1.97316" stroke-linecap="round" stroke-linejoin="round"/>
<path d="M1045.44 165.862C1046.57 165.862 1047.48 164.61 1047.48 163.064C1047.48 161.519 1046.57 160.266 1045.44 160.266C1044.31 160.266 1043.39 161.519 1043.39 163.064C1043.39 164.61 1044.31 165.862 1045.44 165.862Z" fill="#2B2829"/>
<path d="M1080.65 176.167C1081.78 176.167 1082.69 174.914 1082.69 173.369C1082.69 171.823 1081.78 170.57 1080.65 170.57C1079.52 170.57 1078.6 171.823 1078.6 173.369C1078.6 174.914 1079.52 176.167 1080.65 176.167Z" fill="#2B2829"/>
<path d="M1036.55 152.207C1036.55 152.207 1048.84 144.698 1054.44 155.35" stroke="#2B2829" stroke-width="1.97316" stroke-linecap="round" stroke-linejoin="round"/>
<path d="M1073.75 160.158C1073.75 160.158 1086.03 152.648 1091.63 163.294" stroke="#2B2829" stroke-width="1.97316" stroke-linecap="round" stroke-linejoin="round"/>
<path d="M1013.01 147.688C1013.01 147.688 1009.06 148.637 1009.06 155.345C1009.06 162.052 1013.15 177.38 1020.88 178.365" stroke="#2B2829" stroke-width="1.97316" stroke-linecap="round" stroke-linejoin="round"/>
<path d="M1015.9 121.019L1013.42 135.081C1013.42 135.081 1049.98 123.128 1073.75 129.899C1097.52 136.67 1112.11 149.643 1112.11 149.643C1112.11 149.643 1117.16 144.018 1114.56 140.172C1111.96 136.326 1058.9 113.945 1058.9 113.945L1015.9 121.019Z" fill="#515251"/>
<path d="M1017.5 110.908C1017.5 110.908 1028.32 81.3772 1050.94 78.4452C1062.63 75.5202 1055.4 71.2101 1067.11 72.5952C1078.81 73.9804 1088.41 76.9405 1089.3 80.2312C1090.18 83.5218 1092.9 85.5116 1095.06 86.4749C1097.22 87.4382 1124.01 119.381 1117.56 140.883C1117.56 140.883 1122.02 144.335 1121.59 146.451C1121.15 148.568 1119.62 148.561 1116.99 147.105C1114.36 145.65 1093.71 127.769 1069.58 122.721C1045.45 117.672 1019.13 125.667 1019.13 125.667C1019.13 125.667 1009.1 125.526 1009.1 120.619C1009.1 115.711 1017.5 110.908 1017.5 110.908Z" fill="white"/>
<path d="M1017.5 110.908C1017.5 110.908 1028.32 81.3772 1050.94 78.4452C1062.63 75.5202 1055.4 71.2101 1067.11 72.5952C1078.81 73.9804 1088.41 76.9405 1089.3 80.2312C1090.18 83.5218 1092.9 85.5116 1095.06 86.4749C1097.22 87.4382 1124.01 119.381 1117.56 140.883C1117.56 140.883 1122.02 144.335 1121.59 146.451C1121.15 148.568 1119.62 148.561 1116.99 147.105C1114.36 145.65 1093.71 127.769 1069.58 122.721C1045.45 117.672 1019.13 125.667 1019.13 125.667C1019.13 125.667 1009.1 125.526 1009.1 120.619C1009.1 115.711 1017.5 110.908 1017.5 110.908Z" stroke="#2B2829" stroke-width="1.86041" stroke-linecap="round" stroke-linejoin="round"/>
<path d="M1061.24 103.041C1061.24 103.041 1063.08 79.8875 1057.56 76.7305" stroke="#2B2829" stroke-width="1.86041" stroke-linecap="round" stroke-linejoin="round"/>
<path d="M1088.78 106.441C1088.78 106.441 1088.62 99.825 1090.18 96.2883C1091.74 92.7515 1090.18 83.5195 1090.18 83.5195" stroke="#2B2829" stroke-width="1.86041" stroke-linecap="round" stroke-linejoin="round"/>
<path d="M817.514 215.656C817.514 214.798 823.089 208.561 824.939 208.217C834.452 206.438 858.049 200.483 882.51 207.429C884.493 207.992 890.245 215.466 892.178 216.113C892.178 216.113 882.974 326.827 865.192 338.175C847.41 349.524 797.84 234.879 806.13 219.741C806.165 219.741 817.415 220.817 817.514 215.656Z" fill="#1C3E53"/>
<path d="M920.537 227.773C920.537 227.773 952.698 225.179 956.791 286.927C960.883 348.675 910.223 332.827 910.223 332.827L920.537 227.773Z" fill="#1C3E53"/>
<path d="M781.406 452.978C781.406 452.978 740.295 494.055 773.911 650.275C773.911 650.275 895.066 670.525 942.661 650.275C942.661 650.275 955.5 510.248 928.83 452.978C928.823 452.978 833.81 444.414 781.406 452.978Z" fill="#1C3E53"/>
<path d="M763.816 231.045C763.816 231.045 778.793 310.969 786.429 333.701C794.065 356.433 778.962 438.087 767.951 467.168C756.94 496.249 928.024 499.856 949.265 463.399C949.265 463.399 930.576 420.467 925.036 406.615C919.495 392.764 915.192 257.736 930.506 229.695C930.506 229.695 904.877 217.932 889.591 215.633C889.591 215.633 876.232 319.639 859.49 337.737C859.49 337.737 809.034 255.704 809.758 218.382C809.758 218.41 776.044 222.298 763.816 231.045Z" fill="#DB4231"/>
<path d="M788.756 357.016C793.101 357.22 864.292 374.193 920.043 349.141L920.542 368.336C920.542 368.336 865.326 394.183 788.229 374.481L788.756 357.016Z" fill="white"/>
<path d="M783.944 401.548C788.282 401.829 851.62 422.318 919.837 394.98L921.7 414.935C921.7 414.935 856.83 441.436 779.732 421.741C779.739 421.741 783.691 401.512 783.944 401.548Z" fill="white"/>
<path d="M769.395 474.648C778.402 485.153 815.801 490.581 854.381 489.751C856.026 489.751 857.679 486.235 859.303 486.235C860.498 486.193 861.694 489.554 862.889 489.498C901.94 487.719 940.127 479.429 949.239 463.419C949.239 463.419 930.55 420.486 925.01 406.635C919.469 392.783 915.166 257.755 930.48 229.715C930.48 229.715 904.851 217.952 889.565 215.652" stroke="#2B2829" stroke-width="1.97316" stroke-linecap="round" stroke-linejoin="round"/>
<path d="M805.223 219.012C795.612 220.418 773.28 224.271 763.816 231.035C763.816 231.035 778.793 310.959 786.429 333.691C790.753 346.572 787.772 378.368 782.372 408.799C778.244 432.065 772.704 454.502 767.951 467.158" stroke="#2B2829" stroke-width="1.97316" stroke-linecap="round" stroke-linejoin="round"/>
<path d="M859.497 320.287C859.497 320.287 853.675 300.016 857.317 290.305C860.96 280.595 857.81 260.254 857.81 260.254" stroke="#2B2829" stroke-width="1.97316" stroke-linecap="round" stroke-linejoin="round"/>
<path d="M820.393 242.25C820.393 242.25 824.829 256.383 828.261 257.993C828.261 257.993 842.386 241.041 854.698 253.556" stroke="#2B2829" stroke-width="1.97316" stroke-linecap="round" stroke-linejoin="round"/>
<path d="M895.536 271.672H888.814V278.394H895.536V271.672Z" fill="#012846"/>
<path d="M888.819 278.394C889.484 278.392 890.133 278.194 890.684 277.824C891.236 277.454 891.666 276.928 891.919 276.314C892.173 275.7 892.238 275.024 892.108 274.373C891.977 273.721 891.656 273.123 891.186 272.654C890.716 272.184 890.117 271.865 889.465 271.736C888.813 271.607 888.138 271.674 887.524 271.928C886.911 272.183 886.386 272.614 886.017 273.166C885.648 273.719 885.451 274.368 885.451 275.033C885.451 275.475 885.538 275.912 885.708 276.321C885.877 276.729 886.125 277.1 886.438 277.412C886.751 277.724 887.122 277.971 887.531 278.14C887.939 278.308 888.377 278.395 888.819 278.394Z" fill="white"/>
<path d="M900.648 278.394C901.313 278.394 901.963 278.197 902.515 277.827C903.068 277.458 903.499 276.933 903.753 276.319C904.007 275.705 904.074 275.029 903.944 274.377C903.815 273.725 903.495 273.126 903.025 272.656C902.555 272.186 901.956 271.866 901.304 271.736C900.652 271.607 899.976 271.673 899.362 271.928C898.748 272.182 898.223 272.613 897.854 273.166C897.484 273.718 897.287 274.368 897.287 275.033C897.287 275.924 897.641 276.779 898.271 277.409C898.902 278.04 899.757 278.394 900.648 278.394Z" fill="white"/>
<path d="M900.648 286.909C901.313 286.909 901.963 286.712 902.515 286.343C903.068 285.974 903.499 285.449 903.753 284.835C904.007 284.22 904.074 283.545 903.944 282.893C903.815 282.241 903.495 281.642 903.025 281.172C902.555 280.702 901.956 280.382 901.304 280.252C900.652 280.122 899.976 280.189 899.362 280.443C898.748 280.698 898.223 281.128 897.854 281.681C897.484 282.234 897.287 282.884 897.287 283.548C897.287 284.44 897.641 285.295 898.271 285.925C898.902 286.555 899.757 286.909 900.648 286.909Z" fill="white"/>
<path d="M892.173 280.211H885.451V286.933H892.173V280.211Z" fill="#012846"/>
<path d="M892.171 280.211C891.507 280.211 890.857 280.408 890.304 280.777C889.752 281.147 889.321 281.672 889.066 282.286C888.812 282.9 888.745 283.576 888.875 284.228C889.005 284.88 889.325 285.478 889.795 285.948C890.265 286.418 890.864 286.739 891.516 286.868C892.168 286.998 892.844 286.931 893.458 286.677C894.072 286.423 894.597 285.992 894.966 285.439C895.335 284.886 895.532 284.237 895.532 283.572C895.532 282.68 895.178 281.826 894.548 281.195C893.918 280.565 893.063 280.211 892.171 280.211Z" fill="white"/>
<path d="M824.937 172.053C822.603 174.352 827.75 193.09 824.937 208.215C822.125 223.339 857.422 257.848 857.422 257.848C857.422 257.848 879.732 223.943 881.595 213.425C881.595 213.425 872.665 192.683 873.354 174.697C874.043 156.711 833.86 163.285 824.937 172.053Z" fill="white"/>
<path d="M823.002 209.395C823.002 209.395 816.906 212.65 817.208 216.953C817.51 221.256 816.941 224.863 819.036 236.641" stroke="#2B2829" stroke-width="1.97316" stroke-linecap="round" stroke-linejoin="round"/>
<path d="M825.036 184.555C825.036 184.555 824.207 201.289 824.938 208.215" stroke="#2B2829" stroke-width="1.97316" stroke-linecap="round" stroke-linejoin="round"/>
<path d="M908.01 478.239C908.01 478.239 890.179 486.979 883.183 470.195C876.187 453.411 878.964 409.023 878.964 409.023L909.972 266.444C909.972 266.444 921.7 181 939.102 172.443C951.203 170.376 952.089 174.208 952.089 174.208C952.089 174.208 960.062 160.336 965.371 159.745C970.679 159.154 974.511 158.275 985.15 163.879C995.788 169.483 1005.22 171.262 1004.93 172.443C1004.63 173.625 997.546 181.886 997.546 181.886C997.546 181.886 1008.8 193.396 1008.18 204.028C1007.56 214.659 963.311 250.666 954.451 284.015C945.592 317.364 932.022 381.116 937.035 397.991C942.048 414.866 963.894 446.697 963.311 451.429C962.727 456.161 951.779 469.71 933.189 473.563C926.46 476.657 920.174 469.97 920.174 469.97C920.174 469.97 910.394 477.304 908.01 478.239Z" fill="white"/>
<path d="M952.091 172.039C952.091 172.039 947.929 178.023 959.122 187.29C970.316 196.557 986.938 194.152 997.548 179.717" stroke="#2B2829" stroke-width="1.97316" stroke-linecap="round" stroke-linejoin="round"/>
<path d="M971.887 193.164C971.887 193.164 998.528 199.415 1002.33 195.062C1006.14 190.71 997.171 183.109 997.171 183.109" stroke="#2B2829" stroke-width="1.97316" stroke-linecap="round" stroke-linejoin="round"/>
<path d="M936.652 178.172C936.652 178.172 919.889 244.181 919.383 261.956" stroke="#2B2829" stroke-width="1.97316" stroke-linecap="round" stroke-linejoin="round"/>
<path d="M916.693 454.814C916.693 454.814 900.641 373.842 920.912 303.34" stroke="#2B2829" stroke-width="1.97316" stroke-linecap="round" stroke-linejoin="round"/>
<path d="M879.576 405.949C879.576 405.949 874.619 463.858 885.904 474.94C897.19 486.021 910.999 478.526 920.168 469.933" stroke="#2B2829" stroke-width="1.97316" stroke-linecap="round" stroke-linejoin="round"/>
<path d="M894.134 273.652L978.255 281.513C978.255 281.513 952.676 348.95 943.254 351.411C936.504 353.176 881.59 307.606 881.59 307.606L894.134 273.652Z" fill="#999696"/>
<path d="M942.899 341.623L968.05 285.887L897.323 279.277L892.978 288.706L889.596 297.784L940.235 345.364L942.899 341.623Z" fill="#D3CACB"/>
<path d="M889.591 291.523C889.591 291.523 956.121 291.305 956.768 292.606C957.415 293.907 940.294 335.75 940.294 335.75L921.576 371.708L854.59 380.996L887.637 291.137L889.591 291.523Z" fill="#5F6B73"/>
<path d="M764.409 232.039C764.409 232.039 746.986 249.617 741.269 326.623C733.788 331.545 736.861 373.184 737.184 381.27C737.508 389.356 738.267 392.668 738.267 392.668C738.267 392.668 743.315 406.779 801.316 405.401C803.313 405.359 832.253 402.659 849.656 405.9C851.512 406.245 849.86 403.503 851.561 403.418C858.979 403.046 862.066 402.462 863.845 402.336C869.92 401.921 875.685 402.216 881.662 402.146C887.097 402.082 904.865 402.082 909.667 400.219C918.14 396.943 917.127 393.786 919.715 392.126C923.16 389.925 922.527 387.795 922.527 387.795L930.515 382.733C941.231 397.969 952.41 396.05 952.41 396.05C977.723 394.96 962.05 321.519 962.05 321.519C962.05 321.519 949.823 346.648 948.691 346.458C946.462 346.044 935.584 340.341 933.44 332.396C930.508 321.526 911.249 305.607 903.529 305.783C898.865 305.937 894.197 305.631 889.593 304.869C885.874 303.997 888.342 307.632 886.464 307.962C884.587 308.293 881.542 305.101 881.542 305.101C878.885 305.691 878.491 311.78 878.491 311.78C876.248 313.187 876.262 319.648 876.262 319.648C874.856 323.691 877.401 333.711 877.401 333.711C873.4 340.707 883.195 349.229 890.423 351.493C894.674 352.757 898.858 354.236 902.96 355.922C888.616 356.858 869.259 368.579 853.263 380.468C852.138 381.305 852.503 377.044 848.657 376.693C831.993 375.167 792.225 368.867 783.78 366.631C773.374 363.882 775.954 363.565 778.626 353.356C779.765 349.025 780.539 340.306 780.539 340.306C780.539 340.306 782.979 333.978 783.541 330.223L784.096 326.476" fill="#1C3E53"/>
<path d="M929.817 383.167C925.709 377.085 922.4 370.498 919.973 363.571C939.984 360.477 940.118 347.723 938.022 339.665C935.898 337.684 934.324 335.187 933.452 332.416C930.52 321.546 911.262 305.627 903.541 305.803C898.877 305.957 894.209 305.651 889.605 304.889C885.886 304.017 888.354 307.652 886.477 307.982C884.599 308.313 881.555 305.121 881.555 305.121C878.897 305.711 878.503 311.8 878.503 311.8C876.26 313.206 876.274 319.668 876.274 319.668C874.868 323.711 877.413 333.731 877.413 333.731C873.413 340.727 883.207 349.249 890.435 351.513C894.686 352.777 898.87 354.255 902.972 355.942C888.628 356.877 869.271 368.599 853.275 380.488C853.148 380.58 853.106 380.657 853.12 380.713C849.963 385.185 848.051 393.588 851.588 403.473C861.544 402.981 861.67 402.545 863.871 402.391C869.946 401.976 875.712 402.271 881.688 402.201C887.123 402.138 904.891 402.138 909.694 400.274C918.166 396.998 917.154 393.841 919.741 392.181C923.187 389.981 922.554 387.85 922.554 387.85L929.817 383.167Z" fill="white"/>
<path d="M892.971 371.712C894.567 367.226 908.756 365.468 912.004 360.687C914.247 357.389 916.771 359.281 919.957 363.57C922.065 366.619 923.771 369.928 925.033 373.414C910.514 378.061 892.971 371.712 892.971 371.712Z" fill="#5F6B73"/>
<path d="M777.928 302.352C779.847 312.195 781.978 321.104 784.396 327.277L780.522 340.292" stroke="#2B2829" stroke-width="1.97316" stroke-linecap="round" stroke-linejoin="round"/>
<path d="M737.514 390.042C737.24 377.534 734.041 337.371 741.269 326.81C743.638 312.178 748.806 253.686 757.631 241.873C759.606 239.222 761.28 236.832 762.862 234.722C763.256 234.195 763.649 233.689 764.036 233.197C767.242 229.147 770.526 258.509 775.188 286.866" stroke="#2B2829" stroke-width="1.97316" stroke-linecap="round" stroke-linejoin="round"/>
<path d="M954.394 395.932C950.485 396.403 941.077 395.812 930.488 382.734L923.148 387.797C923.148 387.797 924.012 389.491 919.702 392.128C919.702 392.128 918.451 397.549 908.86 400.467C899.27 403.385 888.47 402.141 880.095 402.141C875.399 402.141 862.482 402.71 851.535 403.237C850.902 403.237 850.269 405.874 849.643 405.902C842 406.275 835.658 404.025 834.371 404.081C831.172 404.222 788.788 406.31 781.975 405.333C776.265 404.517 749.04 403.118 740.244 395.299" stroke="#2B2829" stroke-width="1.97316" stroke-linecap="round" stroke-linejoin="round"/>
<path d="M962.039 321.512C962.039 321.512 975.138 382.156 958.172 394.461" stroke="#2B2829" stroke-width="1.97316" stroke-linecap="round" stroke-linejoin="round"/>
<path d="M875.657 325.723C875.657 325.723 874.673 321.595 876.248 319.634C876.248 319.634 875.657 313.144 878.8 311.576C878.8 311.576 877.816 306.07 882.14 305.086" stroke="#2B2829" stroke-width="1.97316" stroke-linecap="round" stroke-linejoin="round"/>
<path d="M777.865 364.629C779.271 365.402 781.894 366.302 786.619 367.202C797.961 369.361 827.689 375.12 849.506 376.821C851.384 376.969 849.971 380.73 851.714 380.562C851.714 380.562 855.61 381.546 857.571 374.276" stroke="#2B2829" stroke-width="1.97316" stroke-linecap="round" stroke-linejoin="round"/>
<path d="M780.528 340.273C780.528 340.273 778.693 354.807 777.182 360.439" stroke="#2B2829" stroke-width="1.97316" stroke-linecap="round" stroke-linejoin="round"/>
<path d="M963.12 362.29C956.047 349.908 940.909 343.221 935.41 335.754" stroke="#2B2829" stroke-width="1.97316" stroke-linecap="round" stroke-linejoin="round"/>
<path d="M933.448 332.804C933.448 332.804 929.124 320.815 919.104 313.932C909.085 307.048 904.753 305.086 901.02 305.867C897.286 306.647 890.796 305.473 889.228 304.686C887.66 303.898 886.472 305.67 887.26 308.033" stroke="#2B2829" stroke-width="1.97316" stroke-linecap="round" stroke-linejoin="round"/>
<path d="M914.445 320.344C912.976 318.867 903.195 313.179 892.965 310.866C882.734 308.552 882.137 305.086 882.137 305.086" stroke="#2B2829" stroke-width="1.97316" stroke-linecap="round" stroke-linejoin="round"/>
<path d="M895.681 325.722C895.681 325.722 878.518 317.242 878.806 311.582" stroke="#2B2829" stroke-width="1.97316" stroke-linecap="round" stroke-linejoin="round"/>
<path d="M889.592 334.873C889.592 334.873 876.696 325.451 876.232 319.629" stroke="#2B2829" stroke-width="1.97316" stroke-linecap="round" stroke-linejoin="round"/>
<path d="M885.908 341.616C885.908 341.616 876.992 338.164 875.656 325.719" stroke="#2B2829" stroke-width="1.97316" stroke-linecap="round" stroke-linejoin="round"/>
<path d="M876.25 334.879C876.25 334.879 873.269 348.759 901.309 354.679C901.309 354.679 911.526 356.999 914.999 359.636" stroke="#2B2829" stroke-width="1.97316" stroke-linecap="round" stroke-linejoin="round"/>
<path d="M930.496 382.737C926.98 379.707 924.315 369.856 918.135 360.688" stroke="#2B2829" stroke-width="1.97316" stroke-linecap="round" stroke-linejoin="round"/>
<path d="M903.704 355.281C899.774 358.727 895.091 357.545 885.908 360.681C876.725 363.817 855.604 378.597 855.604 378.597L857.389 377.394" stroke="#2B2829" stroke-width="1.97316" stroke-linecap="round" stroke-linejoin="round"/>
<path d="M912.918 359.633C912.918 359.633 909.346 364.618 901.788 366.298C894.229 367.979 892.971 371.705 892.971 371.705C892.971 371.705 907.982 376.48 922.994 374.173" stroke="#2B2829" stroke-width="1.97316" stroke-linecap="round" stroke-linejoin="round"/>
<path d="M903.709 386.452C905.263 385.299 910.297 386.452 913.764 384.779C915.571 383.9 924.205 381.418 926.462 380.996" stroke="#2B2829" stroke-width="1.97316" stroke-linecap="round" stroke-linejoin="round"/>
<path d="M902.322 394.958C902.948 394.114 906.414 393.383 910.296 393.066C914.177 392.75 923.163 387.793 923.163 387.793" stroke="#2B2829" stroke-width="1.97316" stroke-linecap="round" stroke-linejoin="round"/>
<path d="M895.492 399.384C895.809 399.173 914.167 398.85 919.497 392.754" stroke="#2B2829" stroke-width="1.97316" stroke-linecap="round" stroke-linejoin="round"/>
<path d="M767.951 362.281C767.951 362.281 773.098 363.772 779.862 365.48" stroke="#2B2829" stroke-width="1.97316" stroke-linecap="round" stroke-linejoin="round"/>
<path d="M949.268 346.142L962.036 321.512" stroke="#2B2829" stroke-width="1.97316" stroke-linecap="round" stroke-linejoin="round"/>
<path d="M849.661 383.719C849.661 383.719 847.812 395.461 850.723 400.727" stroke="#2B2829" stroke-width="1.97316" stroke-linecap="round" stroke-linejoin="round"/>
<path d="M937.987 340.703C937.987 340.703 944.316 359.343 921.422 363.316" stroke="#2B2829" stroke-width="1.97316" stroke-linecap="round" stroke-linejoin="round"/>
<path d="M814.918 167.321C814.918 167.321 807.331 160.754 805.292 152.605C803.253 144.455 807.106 139.027 804.842 135.519C802.578 132.01 801.326 121.646 802.578 121.224C803.829 120.802 829.339 110.023 829.339 110.023C829.339 110.023 883.191 115.761 892.254 119.122C901.317 122.483 900.46 128.431 900.544 132.341C900.628 136.25 892.627 148.723 892.627 148.723L814.918 167.321Z" fill="#515251"/>
<path d="M814.918 167.321C814.918 167.321 807.331 160.754 805.292 152.605C803.253 144.455 807.106 139.027 804.842 135.519C802.578 132.01 801.326 121.646 802.578 121.224C803.829 120.802 829.339 110.023 829.339 110.023C829.339 110.023 883.191 115.761 892.254 119.122C901.317 122.483 900.46 128.431 900.544 132.341C900.628 136.25 892.627 148.723 892.627 148.723L814.918 167.321Z" stroke="#2B2829" stroke-width="1.97316" stroke-linecap="round" stroke-linejoin="round"/>
<path d="M901.307 122.488C901.307 122.488 895.844 82.2905 868.682 72.1796C862.896 64.9444 863.057 63.496 854.859 63.039C846.661 62.5819 835.727 66.2522 835.727 68.5022C835.727 70.7522 812.264 70.6116 804.705 110.774C799.889 119.134 796.19 119.774 796.514 122.509C796.837 125.244 799.08 129.259 807.764 125.244C816.447 121.229 837.175 112.701 857.109 114.634C877.043 116.568 895.113 124.436 900.541 127.811C905.969 131.186 908.704 126.348 901.307 122.488Z" fill="white"/>
<path d="M901.307 122.488C901.307 122.488 895.844 82.2905 868.682 72.1796C862.896 64.9444 863.057 63.496 854.859 63.039C846.661 62.5819 835.727 66.2522 835.727 68.5022C835.727 70.7522 812.264 70.6116 804.705 110.774C799.889 119.134 796.19 119.774 796.514 122.509C796.837 125.244 799.08 129.259 807.764 125.244C816.447 121.229 837.175 112.701 857.109 114.634C877.043 116.568 895.113 124.436 900.541 127.811C905.969 131.186 908.704 126.348 901.307 122.488Z" stroke="#2B2829" stroke-width="1.97316" stroke-linecap="round" stroke-linejoin="round"/>
<path d="M822.382 174.096C821.942 173.137 821.3 172.284 820.5 171.594C819.701 170.905 818.762 170.396 817.749 170.102C814.936 169.322 810.921 166.973 809.501 160.076C807.891 152.229 809.36 144.923 812.869 143.904C814.459 143.504 815.879 142.606 816.921 141.34C817.964 140.075 818.574 138.51 818.663 136.873C818.728 135.152 819.383 133.506 820.519 132.211L827.845 123.872C828.568 123.048 829.463 122.393 830.466 121.953C831.47 121.514 832.558 121.3 833.653 121.326L873.949 122.367C875.676 122.407 877.335 123.049 878.639 124.181C881.81 126.937 887.534 132.358 888.18 136.05C888.455 137.639 888.652 139.038 888.785 140.269C888.944 141.526 889.413 142.725 890.149 143.757C890.886 144.789 891.866 145.622 893.004 146.182C893.553 146.414 894.019 146.806 894.341 147.309C894.662 147.811 894.824 148.399 894.804 148.994C894.684 154.472 892.695 165.342 888.272 168.225C887.91 168.597 887.464 168.877 886.971 169.04C885.194 169.61 883.705 170.845 882.816 172.486C879.652 177.858 873.886 187.448 869.667 192.019C863.627 198.6 856.42 197.524 852.827 197.728C849.445 197.925 832.008 194.437 822.382 174.096Z" fill="white"/>
<path d="M834.691 107.922C834.691 107.922 874.242 103.556 888.129 113.104" stroke="#2B2829" stroke-width="1.97316" stroke-linecap="round" stroke-linejoin="round"/>
<path d="M843.483 95.7226C843.483 95.7226 842.379 78.9742 837.092 71.043" stroke="#2B2829" stroke-width="1.97316" stroke-linecap="round" stroke-linejoin="round"/>
<path d="M869.486 96.6085C868.511 94.2655 868.018 91.7496 868.038 89.2117C868.038 84.8734 872.376 74.7484 871.413 72.9766" stroke="#2B2829" stroke-width="1.97316" stroke-linecap="round" stroke-linejoin="round"/>
<path d="M831.051 150.88C831.051 150.88 837.442 146.387 840.374 150.88" stroke="#2B2829" stroke-width="1.97316" stroke-linecap="round" stroke-linejoin="round"/>
<path d="M863.605 153.027C863.605 153.027 869.132 146.896 873.358 151.558" stroke="#2B2829" stroke-width="1.97316" stroke-linecap="round" stroke-linejoin="round"/>
<path d="M824.936 139.704C824.936 139.704 835.278 134.909 842.464 138.671" stroke="#2B2829" stroke-width="1.97316" stroke-linecap="round" stroke-linejoin="round"/>
<path d="M860.646 138.676C860.646 138.676 872.445 133.501 878.225 139.273" stroke="#2B2829" stroke-width="1.97316" stroke-linecap="round" stroke-linejoin="round"/>
<path d="M887.525 160.012L891.343 152.066" stroke="#2B2829" stroke-width="1.97316" stroke-linecap="round" stroke-linejoin="round"/>
<path d="M817.526 163.152C817.526 163.152 816.12 157.056 814.369 155.312" stroke="#2B2829" stroke-width="1.97316" stroke-linecap="round" stroke-linejoin="round"/>
<path d="M853.318 147.09C853.318 147.09 852.614 154.121 856.657 155.274C856.657 155.274 859.54 160.126 852.854 167.319" stroke="#2B2829" stroke-width="1.97316" stroke-linecap="round" stroke-linejoin="round"/>
<path d="M819.879 159.244C819.879 159.244 845.191 158 850.282 157.072C855.373 156.144 856.019 155.208 860.055 156.608C864.091 158.007 882.232 160.018 884.869 160.018" stroke="#2B2829" stroke-width="1.97316" stroke-linecap="round" stroke-linejoin="round"/>
<path d="M820.828 170.479C820.828 170.479 830.813 190.869 846.337 196.333C871.432 205.143 884.869 169.305 884.869 169.305" stroke="#2B2829" stroke-width="1.97316" stroke-linecap="round" stroke-linejoin="round"/>
<path d="M879.1 300.349C879.249 300.533 879.342 300.756 879.368 300.991C879.394 301.227 879.353 301.464 879.249 301.677C879.145 301.89 878.982 302.068 878.78 302.192C878.579 302.315 878.346 302.378 878.109 302.374C873.89 302.297 865.495 300.736 860.13 290.33C852.747 276.007 855.04 254.878 866.24 236.548C875.536 221.339 877.378 215.735 877.736 214.266C877.8 214.006 877.778 213.732 877.673 213.485L872.751 201.884C872.677 201.716 872.643 201.533 872.653 201.349L873.131 188.728C873.138 188.52 873.199 188.316 873.307 188.138L884.374 169.575C884.515 169.342 884.729 169.16 884.983 169.059C885.237 168.957 885.516 168.941 885.78 169.013C886.094 169.099 886.363 169.304 886.527 169.586C886.691 169.867 886.739 170.201 886.659 170.517C885.914 173.478 884.142 181.261 885.049 185.339C886.181 190.444 898.907 220.059 901.347 224.988C907.31 236.984 897.796 249.64 896.39 252.361C894.984 255.082 880.64 265.066 876.555 270.734C872.47 276.401 870.318 281.737 873.743 290.301C875.086 293.868 876.887 297.246 879.1 300.349Z" fill="#515251"/>
<path d="M871.401 261.953C871.401 261.953 861.866 289.248 874.164 298.607" stroke="#2B2829" stroke-width="1.97316" stroke-linecap="round" stroke-linejoin="round"/>
<path d="M855.984 275.027C855.984 275.027 856.301 299.932 878.098 302.372" stroke="#2B2829" stroke-width="1.97316" stroke-linecap="round" stroke-linejoin="round"/>
<path d="M901.768 244.715C905.699 222.989 880.295 183.438 885.969 173.531" stroke="#2B2829" stroke-width="1.97316" stroke-linecap="round" stroke-linejoin="round"/>
</g>
<defs>
<clipPath id="clip0_22686_87040">
<rect width="1328" height="484" fill="white" transform="matrix(-1 0 0 1 1328 0)"/>
</clipPath>
</defs>
</svg>
